<mxfile host="app.diagrams.net" agent="Mozilla/5.0 (Windows NT 10.0; Win64; x64) AppleWebKit/537.36 (KHTML, like Gecko) Chrome/129.0.0.0 Safari/537.36" version="24.7.16">
  <diagram name="Page-1" id="Jho1zzrNcwxhycVYKuh_">
    <mxGraphModel dx="867" dy="538" grid="1" gridSize="10" guides="1" tooltips="1" connect="1" arrows="1" fold="1" page="1" pageScale="1" pageWidth="827" pageHeight="1169" math="0" shadow="0">
      <root>
        <mxCell id="0" />
        <mxCell id="1" parent="0" />
        <mxCell id="WYLdeQaP9ELxSvu_Us2l-1" value="OpenSSH client configuration file" style="rounded=0;whiteSpace=wrap;html=1;" vertex="1" parent="1">
          <mxGeometry x="354" y="70" width="120" height="60" as="geometry" />
        </mxCell>
        <mxCell id="WYLdeQaP9ELxSvu_Us2l-2" value="2. user&#39;s configuration file (&lt;span style=&quot;background-color: rgb(255, 204, 230);&quot;&gt;~/.ssh/config&lt;/span&gt;)&lt;br&gt;&amp;nbsp; &amp;nbsp; &amp;nbsp; &amp;nbsp; &amp;nbsp; &amp;nbsp;3.&amp;nbsp; &amp;nbsp;system-wide configuration file (&lt;span style=&quot;background-color: rgb(153, 204, 255);&quot;&gt;/etc/ssh/ssh_config&lt;/span&gt;)" style="rounded=0;whiteSpace=wrap;html=1;" vertex="1" parent="1">
          <mxGeometry x="90" y="180" width="280" height="60" as="geometry" />
        </mxCell>
      </root>
    </mxGraphModel>
  </diagram>
</mxfile>
